<?xml version="1.0" encoding="utf-8"?>
<!-- Generator: Adobe Illustrator 25.1.0, SVG Export Plug-In . SVG Version: 6.00 Build 0)  -->
<svg version="1.2" baseProfile="tiny" id="Layer_1" xmlns="http://www.w3.org/2000/svg" xmlns:xlink="http://www.w3.org/1999/xlink"
	 x="0px" y="0px" viewBox="0 0 920.7 242.8" overflow="visible" xml:space="preserve">
<g>
	<g id="def-0c7c6abc-1fff-48fd-a9c6-babc6022ccad_1_" transform="matrix(2.461, 0, 0, 2.461, 36.644, 377.373)">
		<g transform="translate(0, -0.174)">
			<g>
			</g>
			<g>
				<path fill-rule="evenodd" fill="#CECECE" d="M-14.9-110.8c3-6.9,11.1-9.5,17.9-5.7c1.7,0.9,3.1,2.1,4.3,3.6
					c3.1,3.7,0.9,9.8-3.9,10.7c-0.8,0.1-1.7,0.1-2.5,0c-1.3-0.2-2.4-0.8-3.1-1.9c-0.7-1.2-1.3-2.3-2-3.5c-0.4-0.7-0.7-1.4-1.2-2.1
					c-1.6-2.2-3.5-2.8-6-1.7c-0.9,0.4-1.7,0.7-2.6,1.1c-0.4,0.1-0.7,0.1-0.9-0.3C-14.9-110.7-14.9-110.8-14.9-110.8z"/>
				<path fill-rule="evenodd" fill="#CECECE" d="M84.1-97c-1.1,1.8-2.4,3.5-4.1,4.8c-3.9,3.1-8.1,3.3-12.6,1.5
					c-2.2-0.9-4.2-2.2-5.7-4.2c-1.9-2.7-1.8-6.4,0.2-8.6c1.7-1.9,4.5-2.7,6.6-1.9c1.4,0.6,2.4,1.6,3.2,2.8c0.5,0.8,1,1.7,1.4,2.5
					c0.4,0.6,0.7,1.3,1.1,1.9c1.6,2.1,3.4,2.7,5.8,1.8c0.8-0.3,1.6-0.7,2.5-1c0.5-0.2,1-0.1,1.5-0.2C84.1-97.4,84.1-97.2,84.1-97z"
					/>
				<path fill-rule="evenodd" fill="#CECECE" d="M41.9-153.2c3.9,1.9,6.1,5.1,6.7,9.3c0.7,5-0.9,9.2-4.9,12.4
					c-1.8,1.4-3.8,2.2-6.2,1.5c-2.8-0.8-4.6-3.2-4.7-6c-0.1-2.8,1.6-5.1,4.2-6.2c1.1-0.4,2.2-0.9,3.2-1.6c2.3-1.6,2.9-4,1.7-6.6
					c-0.3-0.6-0.6-1.2-0.8-1.9c-0.1-0.2,0.1-0.6,0.2-0.9C41.6-153.2,41.7-153.2,41.9-153.2z"/>
				<path fill-rule="evenodd" fill="#CECECE" d="M20.2-66.8c0.1-3.3,1.7-6.8,4.8-9.5c2.6-2.3,6.8-2.2,9.4,0.2
					c2.5,2.3,2.6,7.2-0.7,9.5c-0.8,0.6-1.7,1.1-2.5,1.5c-0.6,0.3-1.2,0.7-1.9,1c-1.7,0.8-2.4,2.2-2.4,4c0,1.4,0.2,2.8,0.9,4.1
					c0.2,0.3,0.3,0.7,0.4,1.1c0.1,0.4-0.1,0.5-0.5,0.4c-0.2-0.1-0.5-0.2-0.7-0.3C22.7-57,20.2-61.1,20.2-66.8z"/>
				<path fill-rule="evenodd" fill="#CECECE" d="M16.6-121.8c-0.3,0.3-0.6,0.7-1,1c-2,1.5-4.2,2.4-6.6,3.1c-1,0.3-2.1,0.7-3.1,0.5
					c-4.9-1.2-9.1-3.5-11.2-8.5c-1-2.5-1.1-5,0.5-7.3c1.1-1.5,2.5-2.5,4.3-2.8c0.6-0.1,1.4-0.1,2,0.1c2.8,1.1,4.8,2.9,5.4,6
					c0.2,0.9,0.1,1.8,0.2,2.7c0.1,0.8,0.3,1.7,0.6,2.5c0.8,1.9,2.9,2.8,5.1,2.6c0.9-0.1,1.8-0.1,2.7-0.2c0.3,0,0.5,0.1,0.8,0.1
					C16.5-122,16.5-121.9,16.6-121.8z"/>
				<path fill-rule="evenodd" fill="#CECECE" d="M75.2-129.9c0,6.6-4.7,12-11.2,13.2c-2.1,0.4-4,0.3-5.9-0.6
					c-2.4-1.1-3.9-3.6-3.7-6.3c0.2-2.9,1.8-5,4.2-5.8c1.6-0.5,3.3-0.4,4.9,0.1c0.7,0.2,1.3,0.8,1.9,0.9c1.3,0.2,2.7,0.2,4.1,0.2
					c0.9,0,1.5-0.5,1.9-1.3c0.4-0.8,0.7-1.6,1.1-2.4c0.4-0.7,0.7-1.4,1.1-2.1c0.4-0.6,0.7-0.6,0.9,0.1c0.2,0.5,0.3,1.1,0.4,1.7
					C75.2-131.4,75.2-130.7,75.2-129.9z"/>
				<path fill-rule="evenodd" fill="#CECECE" d="M8.6-144.6c6.4-0.2,11.9,4.6,12.9,10.9c0.2,1.5,0.2,3,0,4.5c-0.4,2.8-2,4.3-4.6,5.1
					c-4.5,1.4-7.6-1.8-8.1-4.7c-0.4-1.9,0.1-3.7,0.9-5.4c0.4-0.9,0.7-1.8,0.9-2.7c0.3-1.4-0.3-2.7-1.4-3.5c-0.8-0.7-1.8-1.1-2.7-1.7
					c-0.5-0.3-1.1-0.6-1.6-1c-0.5-0.4-0.5-0.9,0.2-1.1c0.7-0.2,1.5-0.4,2.3-0.5C7.7-144.6,8.2-144.6,8.6-144.6z"/>
				<path fill-rule="evenodd" fill="#CECECE" d="M59.9-144.4c3.6,0.1,6.3,2.7,6.4,6.4c0.1,4.1-2.4,5.8-5.5,6.4
					c-1.5,0.3-3,0.4-4.5,0.8c-2.4,0.6-3.5,2.1-3.6,4.6c0,0.9-0.1,1.8-0.2,2.6c0,0.3-0.3,0.8-0.5,0.8c-0.3,0-0.7-0.2-0.9-0.5
					c-1.3-1.8-2.2-3.8-2.6-5.9c-1.6-8.1,4.5-13.7,9.5-14.9C58.6-144.3,59.2-144.4,59.9-144.4z"/>
				<path fill-rule="evenodd" fill="#CECECE" d="M59.8-103.4c0.1-3.9,1.2-7.4,3.7-10.3c1.9-2.2,4.2-3.2,7-3.5
					c2.5-0.3,4.9-0.2,7.3,0.6c2.9,0.9,5.1,3.7,5.3,6.5c0.2,3.1-2.8,6.3-5.9,6.4c-2,0.1-3.7-0.6-5.2-1.8c-0.7-0.6-1.5-1.2-2.2-1.7
					c-2.4-1.6-4.5-1.4-6.6,0.5c-1,0.9-1.9,1.9-2.9,2.9C60-103.7,59.9-103.5,59.8-103.4z"/>
				<path fill-rule="evenodd" fill="#CECECE" d="M-5.3-73c-0.2-0.9-0.6-1.8-0.7-2.7c-0.5-3.7,0.2-7.1,2.1-10.3
					c0.5-0.8,1.2-1.4,1.9-2C1-90,4.2-91.2,7.8-91.1c1.5,0,2.8,0.4,3.9,1.5c0.8,0.7,1.6,1.5,2.2,2.4c1.3,1.9,1.4,3.9,0,5.7
					c-0.8,1-1.7,2-2.7,2.8c-1.1,1-2.4,1.1-3.8,0.7c-1.3-0.4-2.6-1-4-1.4c-0.7-0.2-1.5-0.4-2.2-0.4c-1.7-0.2-3,0.6-3.8,2
					c-0.7,1.2-1.2,2.4-1.7,3.6C-4.5-73.8-4.8-73.4-5-73C-5.1-73-5.2-73-5.3-73z"/>
				<path fill-rule="evenodd" fill="#CECECE" d="M-3.7-90.3c-3.2,0-5.8-0.8-8-2.8c-0.5-0.5-1-1.1-1.4-1.7c-1.1-1.7-1.2-3.6-0.3-5.4
					c0.8-1.6,2.1-2.8,3.7-3.7c1.6-0.9,3.2-0.6,4.7,0.2c1.1,0.7,2.2,1.5,3.2,2.3c0.9,0.6,1.8,1.3,2.8,1.8c1.2,0.6,2.5,0.5,3.6-0.3
					c0.7-0.5,1.3-1.2,2-1.8c0.6-0.6,1.3-1.2,2-1.7c0.5-0.4,0.8-0.2,0.7,0.4c-0.2,1.3-0.5,2.7-0.9,4c-0.6,1.9-1.5,3.8-3,5.2
					c-2.1,2-4.7,3-7.6,3.3C-2.8-90.4-3.4-90.3-3.7-90.3z"/>
				<path fill-rule="evenodd" fill="#CECECE" d="M20.9-142.4c0.1-2.9,0.8-5.5,2.6-7.6c1.7-1.9,3.8-2.8,6.4-2.2
					c2.5,0.6,4.1,2.3,4.8,4.7c0.5,1.8,0.1,3.6-0.8,5.1c-0.6,1-1.4,1.9-2.2,2.7c-0.7,0.8-1.3,1.7-1.6,2.8c-0.3,1.7,0.3,3.1,1.4,4.3
					c0.6,0.7,1.3,1.2,1.9,1.9c0.3,0.3,0.4,0.7,0.6,1.1c-0.4,0.1-0.9,0.3-1.3,0.2c-7.3-0.7-10.9-6.3-11.7-11.2
					C20.9-141.2,20.9-141.9,20.9-142.4z"/>
				<path fill-rule="evenodd" fill="#CECECE" d="M60.1-63.3c-3.9,0.2-6.8-1.6-9.3-4.3c-1.5-1.7-2.8-3.5-3.2-5.7
					c-0.5-2.1-0.4-4.3,0.2-6.4c0.9-3,2.8-4.4,6.2-4.4c1.8,0,3.4,0.7,4.8,2c1.6,1.5,2.1,3.3,1.5,5.4c-0.5,1.6-1,3.2-1.5,4.7
					c-0.7,1.8-0.1,3.2,1.1,4.5c0.9,0.9,2,1.6,3.2,1.9c0.5,0.1,1,0.3,1.5,0.5c0.5,0.3,0.5,0.6,0,0.8c-0.7,0.3-1.5,0.5-2.3,0.7
					C61.5-63.3,60.8-63.3,60.1-63.3z"/>
				<path fill-rule="evenodd" fill="#CECECE" d="M62.2-90.3c5.7,0.1,11.1,4.2,12.5,9.6c0.8,3.3-0.4,6.4-3.1,7.8
					c-3.1,1.7-7.9,0.9-9.1-4.4c-0.2-1-0.2-2.1-0.3-3.2c-0.4-3.5-2-4.9-5.4-5.1c-0.8,0-1.7,0-2.5,0c-0.1,0-0.3,0-0.4,0
					c-0.8-0.1-0.8-0.3-0.4-0.9c1.3-1.7,3.1-2.6,5.1-3.1C59.6-90,60.9-90.1,62.2-90.3z"/>
				<path fill-rule="evenodd" fill="#CECECE" d="M9.5-63.5c-1.5,0-2.8-0.4-4-1.3c-1.1-0.9-2-2-2.7-3.3c-0.5-0.9-0.6-1.9-0.2-2.8
					c0.4-1,0.9-2.1,1.5-3c0.9-1.5,2.4-2,4-2.1c1.2-0.1,2.5-0.1,3.7-0.2c3.3-0.4,4.7-2.7,4.5-5.9c0-0.8-0.1-1.5,0-2.3
					c0-0.3,0.3-0.6,0.4-0.8c0.3,0.2,0.5,0.3,0.8,0.5c0.1,0.1,0.2,0.3,0.3,0.4c1.5,2.3,2.7,4.7,3.3,7.4c0.3,1.1,0,2.3-0.4,3.3
					c-1.1,3.2-2.8,5.9-5.5,8C13.6-64.4,11.7-63.5,9.5-63.5z"/>
				<path fill-rule="evenodd" fill="#CECECE" d="M48-65.8c0,2.2-0.4,4.3-1.3,6.4c-1.1,2.4-2.9,3.7-5.5,3.7c-1.1,0-2.3-0.1-3.4-0.3
					c-0.4-0.1-0.9-0.4-1.2-0.7c-1.3-1.4-2.2-3.1-2.5-4.9c-0.1-0.4,0-1,0.2-1.4c0.8-1.3,1.7-2.6,2.6-3.8c0.9-1.3,1.9-2.5,2.3-4
					c0.3-1,0.1-2-0.5-2.9c-0.5-0.7-1.2-1.3-1.8-2c-0.5-0.5-1.1-1-1.6-1.6c-0.2-0.2-0.3-0.6-0.2-0.7c0.1-0.2,0.5-0.3,0.7-0.3
					c2.5,0,4.7,0.8,6.7,2.2c2.2,1.6,4.1,3.5,4.9,6.2c0.4,1.3,0.5,2.7,0.8,4.1C48.1-65.9,48.1-65.9,48-65.8z"/>
			</g>
		</g>
	</g>
</g>
<g>
	<path id="def-b1dded73-8a79-4330-afcf-e2f2c00d43d3_1_" fill="#CECECE" d="M300.5,166.2c-6.1,0-9.1-1.7-9.1-5l0,0v-56.4
		c0-7.7-0.3-13.3-1-16.8c-0.7-3.6-1-5.7-1-6.5l0,0c0-1.6,1.9-2.8,5.7-3.7c3.8-0.9,7.2-1.3,10.1-1.3l0,0c1.9,0,3.3,0.8,4.1,2.5
		s1.4,3.4,1.8,5.2c0.4,1.8,0.7,2.9,0.8,3.5l0,0c3-3.8,6.8-6.9,11.4-9.3c4.6-2.4,9.5-3.6,14.5-3.6l0,0c17.4,0,26.1,9.3,26.1,27.8l0,0
		v58.6c0,1.7-0.7,3-2.1,3.8s-3.8,1.2-7,1.2l0,0h-3.3c-6.1,0-9.1-1.7-9.1-5l0,0v-55.7c0-8.5-4.3-12.7-12.9-12.7l0,0
		c-3.3,0-6.4,1-9.4,3.1c-2.9,2.1-5.3,4.6-7.1,7.6l0,0v57.7c0,3.3-3,5-9.1,5l0,0H300.5z M396.1,63c-7.2,0-10.8-1.9-10.8-5.7l0,0V46.2
		c0-3.8,3.7-5.7,11.2-5.7l0,0c7.2,0,10.8,1.9,10.8,5.7l0,0v11.2c0,1.9-0.9,3.4-2.7,4.3C402.8,62.6,400,63,396.1,63L396.1,63z
		 M394.5,166.2c-6.1,0-9.1-1.7-9.1-5l0,0V80.6c0-3.3,3-5,9.1-5l0,0h3.4c6.1,0,9.1,1.7,9.1,5l0,0v80.6c0,3.3-3,5-9.1,5l0,0H394.5z
		 M525.3,74.7c17.2,0,25.8,9.3,25.8,27.8l0,0v58.6c0,3.3-3,5-9.1,5l0,0h-3.4c-6.1,0-9.1-1.7-9.1-5l0,0v-55.7
		c0-8.5-4.1-12.7-12.4-12.7l0,0c-3.7,0-6.9,1.1-9.6,3.4c-2.8,2.2-4.9,4.7-6.5,7.3l0,0v57.7c0,3.3-3,5-9.1,5l0,0h-3.3
		c-3.2,0-5.5-0.4-7-1.2c-1.4-0.8-2.1-2.1-2.1-3.8l0,0v-55.7c0-8.5-4.1-12.7-12.4-12.7l0,0c-3.9,0-7.3,1.2-10.1,3.7
		c-2.9,2.5-4.9,4.8-6,7l0,0v57.7c0,3.3-3,5-9.1,5l0,0h-3.4c-6.1,0-9.1-1.7-9.1-5l0,0v-56.4c0-7.7-0.3-13.3-1-16.8
		c-0.7-3.6-1-5.7-1-6.5l0,0c0-1.6,1.9-2.8,5.7-3.7c3.8-0.9,7.2-1.3,10.1-1.3l0,0c1.8,0,3.2,0.8,4,2.4c0.8,1.6,1.4,3.3,1.8,5.1
		c0.4,1.8,0.7,3,0.8,3.7l0,0c3-3.7,6.7-6.7,11.3-9.2c4.5-2.5,9.4-3.7,14.5-3.7l0,0c12,0,19.8,4.5,23.2,13.4l0,0
		c3.1-3.8,7-7,11.8-9.5C515,76,520,74.7,525.3,74.7L525.3,74.7z M613.1,167c-14.8,0-25.8-3.9-33-11.8c-7.2-7.8-10.8-19.1-10.8-33.8
		l0,0c0-15.8,3.6-27.6,10.7-35.2c7.2-7.7,17.3-11.5,30.3-11.5l0,0c12.4,0,21.6,4,27.6,12c6,8,9,18.8,9,32.5l0,0c0,1.3-1,3.1-3.1,5.4
		c-2.1,2.3-3.6,3.5-4.6,3.5l0,0h-47.4c0.6,7.6,2.7,13,6.3,16.4c3.6,3.4,8.8,5.1,15.7,5.1l0,0c6.2,0,12.5-1.6,18.9-4.8l0,0
		c1.8-0.8,3-1.2,3.4-1.2l0,0c1.5,0,3.2,1.5,5.1,4.6c1.9,3,2.8,5.4,2.8,7l0,0c0,2.2-1.7,4.2-5,6c-3.3,1.8-7.4,3.3-12.3,4.3
		C621.9,166.5,617.4,167,613.1,167L613.1,167z M591.8,112.9h33.7c0-6.5-1.3-11.6-3.9-15.3c-2.6-3.7-6.4-5.5-11.4-5.5l0,0
		C599.5,92.1,593.4,99,591.8,112.9L591.8,112.9z M696.6,202.2c-26,0-39-7.6-39-22.9l0,0c0-4.7,1.4-8.8,4.1-12.3
		c2.7-3.5,6.6-6.2,11.5-8.2l0,0l0.2-0.7c-2.3-1.3-4.1-3-5.3-5.3c-1.3-2.3-1.9-4.9-1.9-7.9l0,0c0-6.5,3.3-11.7,10-15.5l0,0
		c-4.5-2.5-7.9-5.9-10.4-10.1c-2.5-4.2-3.7-9.3-3.7-15.1l0,0c0-9.6,3.2-17,9.7-22c6.5-5,15.2-7.6,26-7.6l0,0c4.6,0,8.6,0.4,12.2,1.2
		l0,0h28.9c1.6,0,2.8,0.6,3.5,1.7c0.7,1.1,1.1,3,1.1,5.7l0,0v2.6c0,2.5-0.3,4.3-0.9,5.4c-0.6,1.1-1.6,1.6-3,1.6l0,0
		c-3.9,0-6.9-0.2-8.9-0.5l0,0l-0.3,0.5c1,1.4,1.9,3.1,2.5,5.2c0.6,2.1,0.9,4.2,0.9,6.1l0,0c0,9.5-3.2,16.8-9.5,22
		c-6.3,5.2-14.7,7.7-25.3,7.7l0,0c-8.4,0-12.5,2.4-12.5,7.2l0,0c0,2.6,1.5,4.5,4.5,5.5c3,1,7.6,1.9,13.9,2.8l0,0
		c3.4,0.5,6.1,0.9,7.9,1.2l0,0c8.1,1.4,14.6,3.8,19.3,7.1c4.8,3.4,7.1,8.8,7.1,16.4l0,0c0,8.6-3.8,15.4-11.4,20.4
		C720.2,199.7,709.8,202.2,696.6,202.2L696.6,202.2z M697.8,118c4.7,0,8.5-1.1,11.3-3.3c2.9-2.2,4.3-5.6,4.3-10.3l0,0
		c0-4.7-1.4-8.2-4.3-10.4c-2.9-2.2-6.6-3.4-11.3-3.4l0,0c-4.6,0-8.3,1.1-11.2,3.4s-4.3,5.7-4.3,10.4l0,0c0,4.7,1.4,8.1,4.2,10.3
		C689.4,117,693.1,118,697.8,118L697.8,118z M698.5,185.1c6.5,0,11.5-0.9,14.8-2.6c3.3-1.7,5-4.2,5-7.4l0,0c0-3-1.8-5.1-5.3-6.3
		c-3.6-1.2-9.4-2.3-17.5-3.2l0,0c-1.6-0.1-4-0.4-7.2-0.9l0,0c-3.1,1.1-5.5,2.7-7.3,4.6c-1.8,1.9-2.7,4-2.7,6.4l0,0
		c0,3.2,1.8,5.6,5.3,7C687.1,184.3,692.1,185.1,698.5,185.1L698.5,185.1z M778.6,167c-8.7,0-15.4-2.3-19.9-6.8
		c-4.6-4.5-6.9-10.7-6.9-18.5l0,0c0-21.1,17.4-31.7,52.1-31.8l0,0v-6.5c0-7.6-5.1-11.3-15.3-11.3l0,0c-4.2,0-8,0.5-11.2,1.5
		c-3.2,1-6,2-8.4,3.1c-2.4,1.1-3.8,1.6-4.1,1.6l0,0c-1.5,0-3.2-1.6-5.1-4.8c-1.9-3.2-2.8-5.6-2.8-7.2l0,0c0-1.8,1.5-3.6,4.4-5.4
		c2.9-1.8,6.9-3.2,11.9-4.4c5-1.1,10.5-1.7,16.3-1.7l0,0c12.1,0,21.2,2.5,27.1,7.5c5.9,5,8.9,11.8,8.9,20.5l0,0v34.5
		c0,7.8,0.3,13.5,1,17.1c0.7,3.6,1,5.8,1,6.6l0,0c0,1.6-1.9,2.8-5.7,3.7c-3.8,0.9-7.2,1.3-10.1,1.3l0,0c-1.8,0-3.2-0.8-4-2.5
		c-0.8-1.7-1.4-3.5-1.8-5.4c-0.4-1.9-0.7-3.3-0.8-4l0,0c-2.4,3.1-5.8,6-10.2,8.8S785.1,167,778.6,167L778.6,167z M784.4,149.7
		c4,0,7.7-1.1,11-3.2c3.3-2.1,6.1-4.8,8.4-8.2l0,0v-13.1c-9.4,0-16.8,1.1-22.1,3.2c-5.3,2.1-8,5.9-8,11.3l0,0c0,3.1,0.9,5.5,2.7,7.3
		C778.4,148.8,781,149.7,784.4,149.7L784.4,149.7z M857.3,166.2c-6.1,0-9.1-1.7-9.1-5l0,0v-56.4c0-7.7-0.3-13.3-1-16.8
		c-0.7-3.6-1-5.7-1-6.5l0,0c0-1.6,1.9-2.8,5.7-3.7s7.2-1.3,10.1-1.3l0,0c1.9,0,3.3,0.8,4.1,2.5s1.4,3.4,1.8,5.2
		c0.4,1.8,0.7,2.9,0.8,3.5l0,0c3-3.8,6.8-6.9,11.4-9.3c4.6-2.4,9.5-3.6,14.5-3.6l0,0c17.4,0,26.1,9.3,26.1,27.8l0,0v58.6
		c0,1.7-0.7,3-2.1,3.8s-3.8,1.2-7,1.2l0,0h-3.3c-6.1,0-9.1-1.7-9.1-5l0,0v-55.7c0-8.5-4.3-12.7-12.9-12.7l0,0c-3.3,0-6.4,1-9.4,3.1
		c-2.9,2.1-5.3,4.6-7.1,7.6l0,0v57.7c0,3.3-3,5-9.1,5l0,0H857.3z"/>
</g>
</svg>
